<svg xmlns="http://www.w3.org/2000/svg" xmlns:xlink="http://www.w3.org/1999/xlink" width="251" height="57" viewBox="0 0 251 57">
    <defs>
        <path id="a" d="M34.826 46.722H0V1.4h34.825z"/>
        <path id="c" d="M17.531.229H.733v45.258h16.798z"/>
        <path id="e" d="M35.914 24.06v22.662H1.09V1.4h34.824z"/>
    </defs>
    <g fill="none" fill-rule="evenodd">
        <g transform="translate(0 10.05)">
            <mask id="b" fill="#fff">
                <use xlink:href="#a"/>
            </mask>
            <path fill="#73B12C" d="M5.834 18.764c0 3.325 1.11 6.164 3.329 8.511 2.217 2.348 4.866 3.524 7.946 3.524 3.14 0 5.835-1.13 8.083-3.385 2.25-2.256 3.373-4.996 3.373-8.222 0-3.41-1.114-6.268-3.343-8.576-2.228-2.307-4.953-3.46-8.174-3.46-2.958 0-5.565 1.16-7.824 3.477-2.26 2.316-3.39 5.026-3.39 8.13m.183 12.985v14.975H0V2.133h6.076v4.133c1.54-1.591 3.257-2.8 5.151-3.628 1.895-.825 3.916-1.239 6.064-1.239 5.044 0 9.227 1.684 12.55 5.053 3.323 3.369 4.984 7.593 4.984 12.68 0 2.347-.416 4.581-1.247 6.705a17.454 17.454 0 0 1-3.585 5.664c-1.682 1.777-3.52 3.089-5.515 3.936-1.995.848-4.27 1.271-6.822 1.271-2.27 0-4.373-.414-6.307-1.24-1.934-.828-3.712-2.067-5.333-3.72" mask="url(#b)"/>
        </g>
        <path fill="#73B12C" d="M47.905 28.813c0 3.408 1.119 6.268 3.357 8.573 2.238 2.307 4.978 3.462 8.22 3.462 2.958 0 5.567-1.16 7.826-3.476 2.258-2.317 3.388-5.029 3.388-8.13 0-3.31-1.119-6.142-3.357-8.5-2.24-2.357-4.899-3.537-7.978-3.537-3.16 0-5.86 1.123-8.099 3.37-2.238 2.245-3.357 4.99-3.357 8.238zM70.392 45.87v-4.134c-1.54 1.611-3.256 2.83-5.15 3.659-1.895.827-3.916 1.24-6.063 1.24-5.025 0-9.198-1.688-12.52-5.068-3.323-3.378-4.985-7.61-4.985-12.694 0-2.368.416-4.614 1.247-6.74.83-2.12 2.016-3.988 3.554-5.601 1.682-1.777 3.52-3.087 5.518-3.934 1.995-.85 4.268-1.272 6.821-1.272 2.29 0 4.395.408 6.32 1.225 1.925.817 3.677 2.052 5.258 3.705v-4.072h6.079V45.87h-6.079z"/>
        <g transform="translate(83.134 .383)">
            <mask id="d" fill="#fff">
                <use xlink:href="#c"/>
            </mask>
            <path fill="#73B12C" d="M5.474 45.487V17.312H.734V11.8h4.74V.228h5.987V11.8h6.07v5.512h-6.07v28.175z" mask="url(#d)"/>
        </g>
        <path fill="#00A5C4" d="M141.472 45.87h-6.018V12.183h5.773v3.828c1.257-1.51 2.64-2.618 4.149-3.323 1.509-.704 3.236-1.056 5.181-1.056 4.374 0 7.735 1.297 10.074 3.89 2.34 2.592 3.51 6.309 3.51 11.147V45.87h-6.049V27.985c0-3.572-.657-6.222-1.973-7.946-1.317-1.725-3.354-2.589-6.109-2.589-2.999 0-5.171 1.017-6.52 3.048-1.347 2.03-2.018 5.385-2.018 10.06V45.87zM177.5 28.813c0 3.408 1.12 6.268 3.357 8.573 2.24 2.307 4.979 3.462 8.22 3.462 2.958 0 5.568-1.16 7.827-3.476 2.257-2.317 3.387-5.029 3.387-8.13 0-3.31-1.12-6.142-3.357-8.5-2.238-2.357-4.899-3.537-7.976-3.537-3.162 0-5.861 1.123-8.1 3.37-2.237 2.245-3.358 4.99-3.358 8.238zm22.486 17.057v-4.134c-1.54 1.611-3.255 2.83-5.15 3.659-1.894.827-3.915 1.24-6.062 1.24-5.023 0-9.199-1.688-12.52-5.068-3.322-3.378-4.983-7.61-4.983-12.694 0-2.368.414-4.614 1.246-6.74.83-2.12 2.016-3.988 3.555-5.601 1.68-1.777 3.519-3.087 5.516-3.934 1.993-.85 4.268-1.272 6.822-1.272 2.289 0 4.396.408 6.32 1.225 1.926.817 3.678 2.052 5.256 3.705v-4.072h6.08V45.87h-6.08z"/>
        <g transform="translate(214.23 10.05)">
            <mask id="f" fill="#fff">
                <use xlink:href="#e"/>
            </mask>
            <path fill="#00A5C4" d="M6.924 18.764c0 3.325 1.11 6.164 3.329 8.511 2.217 2.348 4.865 3.524 7.945 3.524 3.142 0 5.836-1.13 8.083-3.385 2.25-2.256 3.375-4.996 3.375-8.222 0-3.41-1.116-6.268-3.344-8.576-2.229-2.307-4.953-3.46-8.173-3.46-2.96 0-5.568 1.16-7.826 3.477-2.259 2.316-3.389 5.026-3.389 8.13m.184 12.985v14.975H1.09V2.133h6.077v4.133c1.54-1.591 3.257-2.8 5.151-3.628 1.896-.825 3.915-1.239 6.064-1.239 5.043 0 9.228 1.684 12.549 5.053 3.323 3.369 4.983 7.593 4.983 12.68 0 2.347-.414 4.581-1.246 6.705a17.405 17.405 0 0 1-3.586 5.664c-1.681 1.777-3.518 3.089-5.514 3.936-1.995.848-4.268 1.271-6.821 1.271-2.27 0-4.373-.414-6.306-1.24-1.936-.828-3.714-2.067-5.333-3.72" mask="url(#f)"/>
        </g>
        <path fill="#00A5C4" d="M127.687 16.935l-3.995 4.34c-1.931-2.05-4.222-4.198-6.078-4.31-1.522-.091-2.742.824-3.492 1.927-.667.977-.475 2.64.248 3.63.694.949 1.722 1.62 2.134 1.87.831.503 1.249.78 2.467 1.426l3.188 1.73c1.827.95 3.31 2.253 4.072 3.407.887 1.34 1.439 3.219 1.439 5.175 0 2.299-.58 4.992-2.576 6.945-1.997 1.953-4.508 2.958-7.866 2.958-4.46 0-8.022-1.874-10.682-5.616l3.53-4.1c.898 1.126 2.278 2.551 3.486 3.246 1.21.694 2.469 1.071 3.406 1.071 1.03 0 2.37-.346 3.344-1.532.665-.809 1.402-1.751 1.32-3.12-.111-1.816-1.457-3.345-3.77-4.328l-3.631-1.983c-4.683-2.6-6.317-4.773-6.317-8.799 0-2.594.688-4.767 2.553-6.607 1.866-1.843 4.251-2.763 7.156-2.763 1.986 0 3.856.469 5.609 1.403 1.752.936 3.237 2.28 4.455 4.03"/>
    </g>
</svg>
